<svg xmlns="http://www.w3.org/2000/svg" width="298.663" height="291.5" viewBox="0 0 298.663 291.5">
  <g>
    <g transform="translate(9.33632084 5.75)">
      <path fill="none" stroke="rgb(247,190,54)" stroke-linecap="round" stroke-linejoin="round" stroke-width="11.5" d="M142.44537285 160.28262589s-14.36027362.40156674-18.30388692-7.42049194c-3.9436133-7.82205868 9.89399293-24.24027367 18.30388692-26.21907152 8.409894-1.97879785 42.54416962 19.29327904 42.54416962 30.67136668 0 11.37808764-31.16607774 35.12366185-47.49116608 35.12366185s-48.48056537-30.67136668-48.48056537-46.50174949c0-15.8303828 17.80918728-26.21907152 35.1236749-35.6183613 17.31448764-9.3992898 36.11307421-15.33568335 46.99646644-15.33568335 10.88339223 0 26.9478078 12.91882289 36.1130742 40.56535594 9.16526641 27.64653305 6.92579506 37.59715916 3.46289753 45.51235056-3.46289753 7.9151914-19.49250648 17.31321466-50.45936396 28.19786937-30.96685747 10.8846547-58.83944499 11.41182186-74.69964664-9.3992898-8.96370402-11.7618079-17.92196093-36.59724943-17.92196093-57.37697658 0-41.56291594 65.413127-70.75018423 76.79121888-72.23428262" />
      <path fill="none" stroke="rgb(247,190,54)" stroke-linecap="round" stroke-linejoin="round" stroke-width="11.5" d="M63.78812904 77.66781563S50.92593823 69.25792477 45.4842421 62.82683175C40.042546 56.39573874 35.59024918 46.5017495 35.59024918 46.5017495" />
      <path fill="none" stroke="rgb(247,190,54)" stroke-linecap="round" stroke-linejoin="round" stroke-width="11.5" d="M38.53032163 147.3784744s-9.01094389-.5451845-20.32670534.64415037c-11.31576145 1.18933489-18.04848566 3.3892462-18.04848566 3.3892462" />
      <path fill="none" stroke="rgb(247,190,54)" stroke-linecap="round" stroke-linejoin="round" stroke-width="11.5" d="M63.78812904 222.12005872s-4.45229682 7.9151914-11.37809187 13.85158495c-6.92579506 5.93639355-17.31448764 10.88338818-17.31448764 10.88338818" />
      <path fill="none" stroke="rgb(247,190,54)" stroke-linecap="round" stroke-linejoin="round" stroke-width="11.5" d="M140.46657427 238.93984045s1.97879858 7.2193504 1.97879858 16.6947478c0 9.4753974-.98939929 24.3653076-.98939929 24.3653076" />
      <path fill="none" stroke="rgb(247,190,54)" stroke-linecap="round" stroke-linejoin="round" stroke-width="11.5" d="M212.69272268 213.71016785s6.4310954 9.89398925 13.35689046 16.81978173c6.92579505 6.92579248 17.31448763 12.86218603 17.31448763 12.86218603" />
      <path fill="none" stroke="rgb(247,190,54)" stroke-linecap="round" stroke-linejoin="round" stroke-width="11.5" d="M238.467717 140.03468867s9.93890866-.2968185 21.28928405.49687736c11.3503754.79369585 20.09524386 3.38882672 20.09524386 3.38882672" />
      <path fill="none" stroke="rgb(247,190,54)" stroke-linecap="round" stroke-linejoin="round" stroke-width="11.5" d="M207.25102656 74.69961886s6.0227719-8.63760967 13.43541422-15.11581692c7.41264232-6.47820725 15.75186494-12.09265353 15.75186494-12.09265353" />
      <path fill="none" stroke="rgb(247,190,54)" stroke-linecap="round" stroke-linejoin="round" stroke-width="11.5" d="M134.5301785 43.53355271V21.2720769C134.5301785 10.88338818 132.05668029 0 132.05668029 0" />
    </g>
    <g transform="rotate(-21.000008 149.33146031 155.74994792)">
      <rect width="297.262" height="59.002" x=".7" y="126.249" fill="rgb(28,28,28)" />
      <text font-size="0" style="white-space:pre">
        <tspan x="13.922" y="167.765" fill="rgb(230,230,230)" font-family="Input, 'JetBrains Mono', Menlo, Monaco, monospace" font-size="30" font-weight="700" style="white-space:pre;text-transform:none">LANGUAGE SERVER</tspan>
      </text>
    </g>
  </g>
</svg>
